<svg width="245" height="245" viewBox="0 0 245 245" fill="none" style="background-color: black;"
    xmlns="http://www.w3.org/2000/svg">
    <path
        d="M142.645 102.355H245V142.645C231.559 142.645 218.248 145.292 205.83 150.436C193.412 155.579 182.129 163.119 172.624 172.624C163.119 182.129 155.579 193.412 150.436 205.83C145.292 218.248 142.645 231.559 142.645 245H102.355V142.645H0V102.355C13.4415 102.355 26.7516 99.7083 39.1699 94.5645C51.5882 89.4206 62.8714 81.8805 72.376 72.376C81.8805 62.8714 89.4206 51.5882 94.5645 39.1699C99.7083 26.7516 102.355 13.4415 102.355 0H142.645V102.355Z"
        fill="white" />
</svg>